{
 "cells": [
  {
   "cell_type": "code",
   "execution_count": 93,
   "id": "8b8e8a70-48b6-4be6-89d6-b2e4f22e57c0",
   "metadata": {},
   "outputs": [],
   "source": [
    "import subprocess\n",
    "import random\n",
    "import os\n",
    "\n",
    "def concatenate_videos(video_files, output_file, overlay_videos, short_overlay_videos, effects_next, fade_duration=0.2):\n",
    "    print('Создание видео со склейкой и эффектом появления (fade in)')\n",
    "    \n",
    "    filter_complex_parts = []\n",
    "    input_files = []\n",
    "    \n",
    "    for i, video in enumerate(video_files):\n",
    "        input_files.extend([\"-i\", video])\n",
    "        filter_complex_parts.append(\n",
    "            f\"[{i}:v]fade=t=in:st=0:d={fade_duration}[v{i}]\"\n",
    "        )\n",
    "    \n",
    "    video_streams = \"\".join(f\"[v{i}]\" for i in range(len(video_files)))\n",
    "    filter_complex = \";\".join(filter_complex_parts) + f\";{video_streams}concat=n={len(video_files)}:v=1:a=0[outv]\"\n",
    "    \n",
    "    command = [\n",
    "        \"ffmpeg\",\n",
    "        *input_files,\n",
    "        \"-filter_complex\", filter_complex,\n",
    "        \"-map\", \"[outv]\",  # исправлено\n",
    "        \"-c:v\", \"libx264\",\n",
    "        \"-preset\", \"fast\",\n",
    "        \"-y\", output_file\n",
    "    ]\n",
    "    \n",
    "    print(' '.join(command))\n",
    "    \n",
    "    try:\n",
    "        subprocess.run(command, shell=False, check=True)\n",
    "        print(\"Видео успешно склеены с эффектом fade in!\")\n",
    "    except subprocess.CalledProcessError as e:\n",
    "        print(\"Ошибка при обработке видео:\", e)\n",
    "        \n",
    "    durations = []\n",
    "    dd = 0\n",
    "    for i in range(len(video_files) - 1):\n",
    "        video_duration = get_video_duration(video_files[i])\n",
    "        if effects_next[i]: \n",
    "            durations.append([effects_next[i], dd + float(video_duration)])    \n",
    "            dd = 0\n",
    "            \n",
    "        else: \n",
    "            dd += float(video_duration)\n",
    "            \n",
    "    if len(durations):\n",
    "        apply_chromakey_with_overlays(output_file, overlay_videos, short_overlay_videos, durations,)\n",
    "\n",
    "\n",
    "def get_video_duration(video_file):\n",
    "    result = subprocess.run([\"ffprobe\", \"-v\", \"error\", \"-show_entries\", \"format=duration\", \"-of\", \"default=noprint_wrappers=1:nokey=1\", video_file], stdout=subprocess.PIPE, stderr=subprocess.PIPE)\n",
    "    return float(result.stdout)\n",
    "\n",
    "\n",
    "\n",
    "\n",
    "def apply_chromakey_with_overlays(base_video, overlay_videos, short_overlay_videos, durations):\n",
    "    # Выходное видео сохраняется с тем же именем\n",
    "    temp_file = \"videos/temp.mp4\"\n",
    "\n",
    "    filter_complex = []\n",
    "    inputs = [f'-i {base_video}']\n",
    "    for i, dur in enumerate(durations):\n",
    "        if dur[0] == 1:\n",
    "            inputs.append(f'-i {overlay_videos[i % len(overlay_videos)]}')\n",
    "        elif dur[0] == 2: \n",
    "            inputs.append(f'-i {random.choice(short_overlay_videos)}')\n",
    "\n",
    "    \n",
    "    overlay_streams = []\n",
    "\n",
    "    duration = 0 \n",
    "    for i, dur in enumerate(durations):\n",
    "        if dur[0] == 1:\n",
    "            tr = f'tr{i}'\n",
    "            over = f'over{i}'\n",
    "            delay = duration + durations[i][1] - 2.5  \n",
    "            duration += durations[i][1]\n",
    "            filter_complex.append(\n",
    "                f'[{i+1}:v]setpts=PTS+{delay}/TB[{tr}]'\n",
    "            )\n",
    "            overlay_streams.append(tr)\n",
    "        elif dur[0] == 2:\n",
    "            tr = f'tr{i}'\n",
    "            over = f'over{i}'\n",
    "            delay = duration + durations[i][1] - 0.6\n",
    "            duration += durations[i][1]\n",
    "            filter_complex.append(\n",
    "                f'[{i+1}:v]setpts=PTS+{delay}/TB[{tr}]'\n",
    "            )\n",
    "            overlay_streams.append(tr)   \n",
    "            \n",
    "    base = '[0:v]'\n",
    "    for i, over in enumerate(overlay_streams):\n",
    "        output = f'base{i+1}' if i < len(overlay_streams) - 1 else 'v'\n",
    "        filter_complex.append(f'{base}[{over}]overlay[{output}]')\n",
    "        base = f'[{output}]'\n",
    "    \n",
    "    filter_complex_str = '; '.join(filter_complex)\n",
    "    \n",
    "    command = [\n",
    "        'ffmpeg',\n",
    "        *inputs,\n",
    "        '-filter_complex', f'\"{filter_complex_str}\"',\n",
    "        '-map', '[v]',\n",
    "        '-c:v', 'libx264',\n",
    "        '-c:a', 'aac',\n",
    "        '-preset', 'fast',\n",
    "        '-y', temp_file  # Перезаписываем исходный файл\n",
    "    ]\n",
    "\n",
    "    print(' '.join(command))\n",
    "    \n",
    "    subprocess.run(' '.join(command), shell=True)\n",
    "\n",
    "    os.replace(temp_file, base_video)\n",
    "\n",
    "    return base_video  # Возвращаем путь к перезаписанному файлу\n",
    "\n",
    "\n"
   ]
  },
  {
   "cell_type": "code",
   "execution_count": 125,
   "id": "146836c7-aa6e-4bc9-be26-54afd4032114",
   "metadata": {
    "scrolled": true
   },
   "outputs": [
    {
     "name": "stdout",
     "output_type": "stream",
     "text": [
      "Создание видео со склейкой и эффектом появления (fade in)\n",
      "ffmpeg -i videos/generate_image_174700028.mp4 -i videos/generate_image_174700028.mp4 -i videos/generate_image_174700028.mp4 -i videos/generate_image_174700028.mp4 -i videos/generate_image_174700028.mp4 -filter_complex [0:v]fade=t=in:st=0:d=0.2[v0];[1:v]fade=t=in:st=0:d=0.2[v1];[2:v]fade=t=in:st=0:d=0.2[v2];[3:v]fade=t=in:st=0:d=0.2[v3];[4:v]fade=t=in:st=0:d=0.2[v4];[v0][v1][v2][v3][v4]concat=n=5:v=1:a=0[outv] -map [outv] -c:v libx264 -preset fast -y output.mp4\n"
     ]
    },
    {
     "name": "stderr",
     "output_type": "stream",
     "text": [
      "ffmpeg version 4.4.2-0ubuntu0.22.04.1 Copyright (c) 2000-2021 the FFmpeg developers\n",
      "  built with gcc 11 (Ubuntu 11.2.0-19ubuntu1)\n",
      "  configuration: --prefix=/usr --extra-version=0ubuntu0.22.04.1 --toolchain=hardened --libdir=/usr/lib/x86_64-linux-gnu --incdir=/usr/include/x86_64-linux-gnu --arch=amd64 --enable-gpl --disable-stripping --enable-gnutls --enable-ladspa --enable-libaom --enable-libass --enable-libbluray --enable-libbs2b --enable-libcaca --enable-libcdio --enable-libcodec2 --enable-libdav1d --enable-libflite --enable-libfontconfig --enable-libfreetype --enable-libfribidi --enable-libgme --enable-libgsm --enable-libjack --enable-libmp3lame --enable-libmysofa --enable-libopenjpeg --enable-libopenmpt --enable-libopus --enable-libpulse --enable-librabbitmq --enable-librubberband --enable-libshine --enable-libsnappy --enable-libsoxr --enable-libspeex --enable-libsrt --enable-libssh --enable-libtheora --enable-libtwolame --enable-libvidstab --enable-libvorbis --enable-libvpx --enable-libwebp --enable-libx265 --enable-libxml2 --enable-libxvid --enable-libzimg --enable-libzmq --enable-libzvbi --enable-lv2 --enable-omx --enable-openal --enable-opencl --enable-opengl --enable-sdl2 --enable-pocketsphinx --enable-librsvg --enable-libmfx --enable-libdc1394 --enable-libdrm --enable-libiec61883 --enable-chromaprint --enable-frei0r --enable-libx264 --enable-shared\n",
      "  libavutil      56. 70.100 / 56. 70.100\n",
      "  libavcodec     58.134.100 / 58.134.100\n",
      "  libavformat    58. 76.100 / 58. 76.100\n",
      "  libavdevice    58. 13.100 / 58. 13.100\n",
      "  libavfilter     7.110.100 /  7.110.100\n",
      "  libswscale      5.  9.100 /  5.  9.100\n",
      "  libswresample   3.  9.100 /  3.  9.100\n",
      "  libpostproc    55.  9.100 / 55.  9.100\n",
      "Input #0, mov,mp4,m4a,3gp,3g2,mj2, from 'videos/generate_image_174700028.mp4':\n",
      "  Metadata:\n",
      "    major_brand     : isom\n",
      "    minor_version   : 512\n",
      "    compatible_brands: isomiso2avc1mp41\n",
      "    encoder         : Lavf58.76.100\n",
      "  Duration: 00:00:05.17, start: 0.000000, bitrate: 540 kb/s\n",
      "  Stream #0:0(und): Video: h264 (High) (avc1 / 0x31637661), yuv420p, 1280x720, 536 kb/s, 30 fps, 30 tbr, 15360 tbn, 60 tbc (default)\n",
      "    Metadata:\n",
      "      handler_name    : VideoHandler\n",
      "      vendor_id       : [0][0][0][0]\n",
      "Input #1, mov,mp4,m4a,3gp,3g2,mj2, from 'videos/generate_image_174700028.mp4':\n",
      "  Metadata:\n",
      "    major_brand     : isom\n",
      "    minor_version   : 512\n",
      "    compatible_brands: isomiso2avc1mp41\n",
      "    encoder         : Lavf58.76.100\n",
      "  Duration: 00:00:05.17, start: 0.000000, bitrate: 540 kb/s\n",
      "  Stream #1:0(und): Video: h264 (High) (avc1 / 0x31637661), yuv420p, 1280x720, 536 kb/s, 30 fps, 30 tbr, 15360 tbn, 60 tbc (default)\n",
      "    Metadata:\n",
      "      handler_name    : VideoHandler\n",
      "      vendor_id       : [0][0][0][0]\n",
      "Input #2, mov,mp4,m4a,3gp,3g2,mj2, from 'videos/generate_image_174700028.mp4':\n",
      "  Metadata:\n",
      "    major_brand     : isom\n",
      "    minor_version   : 512\n",
      "    compatible_brands: isomiso2avc1mp41\n",
      "    encoder         : Lavf58.76.100\n",
      "  Duration: 00:00:05.17, start: 0.000000, bitrate: 540 kb/s\n",
      "  Stream #2:0(und): Video: h264 (High) (avc1 / 0x31637661), yuv420p, 1280x720, 536 kb/s, 30 fps, 30 tbr, 15360 tbn, 60 tbc (default)\n",
      "    Metadata:\n",
      "      handler_name    : VideoHandler\n",
      "      vendor_id       : [0][0][0][0]\n",
      "Input #3, mov,mp4,m4a,3gp,3g2,mj2, from 'videos/generate_image_174700028.mp4':\n",
      "  Metadata:\n",
      "    major_brand     : isom\n",
      "    minor_version   : 512\n",
      "    compatible_brands: isomiso2avc1mp41\n",
      "    encoder         : Lavf58.76.100\n",
      "  Duration: 00:00:05.17, start: 0.000000, bitrate: 540 kb/s\n",
      "  Stream #3:0(und): Video: h264 (High) (avc1 / 0x31637661), yuv420p, 1280x720, 536 kb/s, 30 fps, 30 tbr, 15360 tbn, 60 tbc (default)\n",
      "    Metadata:\n",
      "      handler_name    : VideoHandler\n",
      "      vendor_id       : [0][0][0][0]\n",
      "Input #4, mov,mp4,m4a,3gp,3g2,mj2, from 'videos/generate_image_174700028.mp4':\n",
      "  Metadata:\n",
      "    major_brand     : isom\n",
      "    minor_version   : 512\n",
      "    compatible_brands: isomiso2avc1mp41\n",
      "    encoder         : Lavf58.76.100\n",
      "  Duration: 00:00:05.17, start: 0.000000, bitrate: 540 kb/s\n",
      "  Stream #4:0(und): Video: h264 (High) (avc1 / 0x31637661), yuv420p, 1280x720, 536 kb/s, 30 fps, 30 tbr, 15360 tbn, 60 tbc (default)\n",
      "    Metadata:\n",
      "      handler_name    : VideoHandler\n",
      "      vendor_id       : [0][0][0][0]\n",
      "Stream mapping:\n",
      "  Stream #0:0 (h264) -> fade\n",
      "  Stream #1:0 (h264) -> fade\n",
      "  Stream #2:0 (h264) -> fade\n",
      "  Stream #3:0 (h264) -> fade\n",
      "  Stream #4:0 (h264) -> fade\n",
      "  concat -> Stream #0:0 (libx264)\n",
      "Press [q] to stop, [?] for help\n",
      "[libx264 @ 0x555aab3c6200] using cpu capabilities: MMX2 SSE2Fast SSSE3 SSE4.2 AVX FMA3 BMI2 AVX2\n",
      "[libx264 @ 0x555aab3c6200] profile High, level 3.1, 4:2:0, 8-bit\n",
      "[libx264 @ 0x555aab3c6200] 264 - core 163 r3060 5db6aa6 - H.264/MPEG-4 AVC codec - Copyleft 2003-2021 - http://www.videolan.org/x264.html - options: cabac=1 ref=2 deblock=1:0:0 analyse=0x3:0x113 me=hex subme=6 psy=1 psy_rd=1.00:0.00 mixed_ref=1 me_range=16 chroma_me=1 trellis=1 8x8dct=1 cqm=0 deadzone=21,11 fast_pskip=1 chroma_qp_offset=-2 threads=22 lookahead_threads=3 sliced_threads=0 nr=0 decimate=1 interlaced=0 bluray_compat=0 constrained_intra=0 bframes=3 b_pyramid=2 b_adapt=1 b_bias=0 direct=1 weightb=1 open_gop=0 weightp=1 keyint=250 keyint_min=25 scenecut=40 intra_refresh=0 rc_lookahead=30 rc=crf mbtree=1 crf=23.0 qcomp=0.60 qpmin=0 qpmax=69 qpstep=4 ip_ratio=1.40 aq=1:1.00\n",
      "Output #0, mp4, to 'output.mp4':\n",
      "  Metadata:\n",
      "    major_brand     : isom\n",
      "    minor_version   : 512\n",
      "    compatible_brands: isomiso2avc1mp41\n",
      "    encoder         : Lavf58.76.100\n",
      "  Stream #0:0: Video: h264 (avc1 / 0x31637661), yuv420p(progressive), 1280x720, q=2-31, 30 fps, 15360 tbn (default)\n",
      "    Metadata:\n",
      "      encoder         : Lavc58.134.100 libx264\n",
      "    Side data:\n",
      "      cpb: bitrate max/min/avg: 0/0/0 buffer size: 0 vbv_delay: N/A\n",
      "frame=  775 fps=192 q=-1.0 Lsize=    1399kB time=00:00:25.73 bitrate= 445.4kbits/s speed=6.38x    \n",
      "video:1389kB audio:0kB subtitle:0kB other streams:0kB global headers:0kB muxing overhead: 0.710292%\n",
      "[libx264 @ 0x555aab3c6200] frame I:6     Avg QP:15.54  size: 11325\n",
      "[libx264 @ 0x555aab3c6200] frame P:200   Avg QP:18.39  size:  4848\n",
      "[libx264 @ 0x555aab3c6200] frame B:569   Avg QP:22.97  size:   675\n",
      "[libx264 @ 0x555aab3c6200] consecutive B-frames:  0.9%  2.3%  3.9% 92.9%\n",
      "[libx264 @ 0x555aab3c6200] mb I  I16..4: 35.8% 59.2%  5.1%\n",
      "[libx264 @ 0x555aab3c6200] mb P  I16..4:  1.4%  2.7%  0.2%  P16..4: 30.9%  6.2%  3.0%  0.0%  0.0%    skip:55.6%\n",
      "[libx264 @ 0x555aab3c6200] mb B  I16..4:  0.5%  0.1%  0.0%  B16..8:  8.8%  0.3%  0.0%  direct: 2.5%  skip:87.8%  L0:44.8% L1:53.9% BI: 1.3%\n",
      "[libx264 @ 0x555aab3c6200] 8x8 transform intra:53.8% inter:85.4%\n",
      "[libx264 @ 0x555aab3c6200] coded y,uvDC,uvAC intra: 17.3% 42.0% 11.1% inter: 1.9% 5.8% 0.1%\n",
      "[libx264 @ 0x555aab3c6200] i16 v,h,dc,p: 44% 27%  9% 19%\n",
      "[libx264 @ 0x555aab3c6200] i8 v,h,dc,ddl,ddr,vr,hd,vl,hu: 32% 26% 23%  3%  3%  3%  4%  3%  2%\n",
      "[libx264 @ 0x555aab3c6200] i4 v,h,dc,ddl,ddr,vr,hd,vl,hu: 41% 20% 12%  5%  5%  5%  3%  7%  2%\n",
      "[libx264 @ 0x555aab3c6200] i8c dc,h,v,p: 60% 19% 16%  4%\n",
      "[libx264 @ 0x555aab3c6200] Weighted P-Frames: Y:7.0% UV:7.0%\n",
      "[libx264 @ 0x555aab3c6200] ref P L0: 67.6% 32.4%\n",
      "[libx264 @ 0x555aab3c6200] ref B L0: 76.4% 23.6%\n",
      "[libx264 @ 0x555aab3c6200] ref B L1: 92.1%  7.9%\n",
      "[libx264 @ 0x555aab3c6200] kb/s:440.31\n"
     ]
    },
    {
     "name": "stdout",
     "output_type": "stream",
     "text": [
      "Видео успешно склеены с эффектом fade in!\n",
      "ffmpeg -i output.mp4 -i videos/9.mov -i videos/9.mov -i videos/9.mov -i videos/9.mov -filter_complex \"[1:v]setpts=PTS+4.567/TB[tr0]; [2:v]setpts=PTS+9.734/TB[tr1]; [3:v]setpts=PTS+14.901/TB[tr2]; [4:v]setpts=PTS+20.067999999999998/TB[tr3]; [0:v][tr0]overlay[base1]; [base1][tr1]overlay[base2]; [base2][tr2]overlay[base3]; [base3][tr3]overlay[v]\" -map [v] -c:v libx264 -c:a aac -preset fast -y videos/temp.mp4\n"
     ]
    },
    {
     "name": "stderr",
     "output_type": "stream",
     "text": [
      "ffmpeg version 4.4.2-0ubuntu0.22.04.1 Copyright (c) 2000-2021 the FFmpeg developers\n",
      "  built with gcc 11 (Ubuntu 11.2.0-19ubuntu1)\n",
      "  configuration: --prefix=/usr --extra-version=0ubuntu0.22.04.1 --toolchain=hardened --libdir=/usr/lib/x86_64-linux-gnu --incdir=/usr/include/x86_64-linux-gnu --arch=amd64 --enable-gpl --disable-stripping --enable-gnutls --enable-ladspa --enable-libaom --enable-libass --enable-libbluray --enable-libbs2b --enable-libcaca --enable-libcdio --enable-libcodec2 --enable-libdav1d --enable-libflite --enable-libfontconfig --enable-libfreetype --enable-libfribidi --enable-libgme --enable-libgsm --enable-libjack --enable-libmp3lame --enable-libmysofa --enable-libopenjpeg --enable-libopenmpt --enable-libopus --enable-libpulse --enable-librabbitmq --enable-librubberband --enable-libshine --enable-libsnappy --enable-libsoxr --enable-libspeex --enable-libsrt --enable-libssh --enable-libtheora --enable-libtwolame --enable-libvidstab --enable-libvorbis --enable-libvpx --enable-libwebp --enable-libx265 --enable-libxml2 --enable-libxvid --enable-libzimg --enable-libzmq --enable-libzvbi --enable-lv2 --enable-omx --enable-openal --enable-opencl --enable-opengl --enable-sdl2 --enable-pocketsphinx --enable-librsvg --enable-libmfx --enable-libdc1394 --enable-libdrm --enable-libiec61883 --enable-chromaprint --enable-frei0r --enable-libx264 --enable-shared\n",
      "  libavutil      56. 70.100 / 56. 70.100\n",
      "  libavcodec     58.134.100 / 58.134.100\n",
      "  libavformat    58. 76.100 / 58. 76.100\n",
      "  libavdevice    58. 13.100 / 58. 13.100\n",
      "  libavfilter     7.110.100 /  7.110.100\n",
      "  libswscale      5.  9.100 /  5.  9.100\n",
      "  libswresample   3.  9.100 /  3.  9.100\n",
      "  libpostproc    55.  9.100 / 55.  9.100\n",
      "Input #0, mov,mp4,m4a,3gp,3g2,mj2, from 'output.mp4':\n",
      "  Metadata:\n",
      "    major_brand     : isom\n",
      "    minor_version   : 512\n",
      "    compatible_brands: isomiso2avc1mp41\n",
      "    encoder         : Lavf58.76.100\n",
      "  Duration: 00:00:25.83, start: 0.000000, bitrate: 443 kb/s\n",
      "  Stream #0:0(und): Video: h264 (High) (avc1 / 0x31637661), yuv420p, 1280x720, 440 kb/s, 30 fps, 30 tbr, 15360 tbn, 60 tbc (default)\n",
      "    Metadata:\n",
      "      handler_name    : VideoHandler\n",
      "      vendor_id       : [0][0][0][0]\n",
      "Input #1, mov,mp4,m4a,3gp,3g2,mj2, from 'videos/9.mov':\n",
      "  Metadata:\n",
      "    major_brand     : qt  \n",
      "    minor_version   : 512\n",
      "    compatible_brands: qt  \n",
      "    encoder         : Lavf58.76.100\n",
      "  Duration: 00:00:01.60, start: 0.000000, bitrate: 87167 kb/s\n",
      "  Stream #1:0: Video: prores (4444) (ap4h / 0x68347061), yuva444p12le(tv, bt709, progressive), 1280x720, 87162 kb/s, 30 fps, 30 tbr, 15360 tbn, 15360 tbc (default)\n",
      "    Metadata:\n",
      "      handler_name    : VideoHandler\n",
      "      vendor_id       : FFMP\n",
      "      encoder         : Lavc58.134.100 prores_ks\n",
      "Input #2, mov,mp4,m4a,3gp,3g2,mj2, from 'videos/9.mov':\n",
      "  Metadata:\n",
      "    major_brand     : qt  \n",
      "    minor_version   : 512\n",
      "    compatible_brands: qt  \n",
      "    encoder         : Lavf58.76.100\n",
      "  Duration: 00:00:01.60, start: 0.000000, bitrate: 87167 kb/s\n",
      "  Stream #2:0: Video: prores (4444) (ap4h / 0x68347061), yuva444p12le(tv, bt709, progressive), 1280x720, 87162 kb/s, 30 fps, 30 tbr, 15360 tbn, 15360 tbc (default)\n",
      "    Metadata:\n",
      "      handler_name    : VideoHandler\n",
      "      vendor_id       : FFMP\n",
      "      encoder         : Lavc58.134.100 prores_ks\n",
      "Input #3, mov,mp4,m4a,3gp,3g2,mj2, from 'videos/9.mov':\n",
      "  Metadata:\n",
      "    major_brand     : qt  \n",
      "    minor_version   : 512\n",
      "    compatible_brands: qt  \n",
      "    encoder         : Lavf58.76.100\n",
      "  Duration: 00:00:01.60, start: 0.000000, bitrate: 87167 kb/s\n",
      "  Stream #3:0: Video: prores (4444) (ap4h / 0x68347061), yuva444p12le(tv, bt709, progressive), 1280x720, 87162 kb/s, 30 fps, 30 tbr, 15360 tbn, 15360 tbc (default)\n",
      "    Metadata:\n",
      "      handler_name    : VideoHandler\n",
      "      vendor_id       : FFMP\n",
      "      encoder         : Lavc58.134.100 prores_ks\n",
      "Input #4, mov,mp4,m4a,3gp,3g2,mj2, from 'videos/9.mov':\n",
      "  Metadata:\n",
      "    major_brand     : qt  \n",
      "    minor_version   : 512\n",
      "    compatible_brands: qt  \n",
      "    encoder         : Lavf58.76.100\n",
      "  Duration: 00:00:01.60, start: 0.000000, bitrate: 87167 kb/s\n",
      "  Stream #4:0: Video: prores (4444) (ap4h / 0x68347061), yuva444p12le(tv, bt709, progressive), 1280x720, 87162 kb/s, 30 fps, 30 tbr, 15360 tbn, 15360 tbc (default)\n",
      "    Metadata:\n",
      "      handler_name    : VideoHandler\n",
      "      vendor_id       : FFMP\n",
      "      encoder         : Lavc58.134.100 prores_ks\n",
      "Stream mapping:\n",
      "  Stream #0:0 (h264) -> overlay:main\n",
      "  Stream #1:0 (prores) -> setpts\n",
      "  Stream #2:0 (prores) -> setpts\n",
      "  Stream #3:0 (prores) -> setpts\n",
      "  Stream #4:0 (prores) -> setpts\n",
      "  overlay -> Stream #0:0 (libx264)\n",
      "Press [q] to stop, [?] for help\n",
      "[libx264 @ 0x556cfdd431c0] using cpu capabilities: MMX2 SSE2Fast SSSE3 SSE4.2 AVX FMA3 BMI2 AVX2\n",
      "[libx264 @ 0x556cfdd431c0] profile High, level 3.1, 4:2:0, 8-bit\n",
      "[libx264 @ 0x556cfdd431c0] 264 - core 163 r3060 5db6aa6 - H.264/MPEG-4 AVC codec - Copyleft 2003-2021 - http://www.videolan.org/x264.html - options: cabac=1 ref=2 deblock=1:0:0 analyse=0x3:0x113 me=hex subme=6 psy=1 psy_rd=1.00:0.00 mixed_ref=1 me_range=16 chroma_me=1 trellis=1 8x8dct=1 cqm=0 deadzone=21,11 fast_pskip=1 chroma_qp_offset=-2 threads=22 lookahead_threads=3 sliced_threads=0 nr=0 decimate=1 interlaced=0 bluray_compat=0 constrained_intra=0 bframes=3 b_pyramid=2 b_adapt=1 b_bias=0 direct=1 weightb=1 open_gop=0 weightp=1 keyint=250 keyint_min=25 scenecut=40 intra_refresh=0 rc_lookahead=30 rc=crf mbtree=1 crf=23.0 qcomp=0.60 qpmin=0 qpmax=69 qpstep=4 ip_ratio=1.40 aq=1:1.00\n",
      "Output #0, mp4, to 'videos/temp.mp4':\n",
      "  Metadata:\n",
      "    major_brand     : isom\n",
      "    minor_version   : 512\n",
      "    compatible_brands: isomiso2avc1mp41\n",
      "    encoder         : Lavf58.76.100\n",
      "  Stream #0:0: Video: h264 (avc1 / 0x31637661), yuv420p(progressive), 1280x720, q=2-31, 30 fps, 15360 tbn (default)\n",
      "    Metadata:\n",
      "      encoder         : Lavc58.134.100 libx264\n",
      "    Side data:\n",
      "      cpb: bitrate max/min/avg: 0/0/0 buffer size: 0 vbv_delay: N/A\n",
      "frame=  775 fps=145 q=-1.0 Lsize=    2528kB time=00:00:25.73 bitrate= 804.8kbits/s speed=4.81x    \n",
      "video:2518kB audio:0kB subtitle:0kB other streams:0kB global headers:0kB muxing overhead: 0.389014%\n",
      "[libx264 @ 0x556cfdd431c0] frame I:6     Avg QP:16.79  size: 24643\n",
      "[libx264 @ 0x556cfdd431c0] frame P:227   Avg QP:18.88  size:  6520\n",
      "[libx264 @ 0x556cfdd431c0] frame B:542   Avg QP:23.43  size:  1753\n",
      "[libx264 @ 0x556cfdd431c0] consecutive B-frames:  2.1% 11.9%  6.6% 79.5%\n",
      "[libx264 @ 0x556cfdd431c0] mb I  I16..4: 32.7% 55.1% 12.2%\n",
      "[libx264 @ 0x556cfdd431c0] mb P  I16..4:  2.2%  4.0%  1.1%  P16..4: 32.2%  5.7%  2.4%  0.0%  0.0%    skip:52.3%\n",
      "[libx264 @ 0x556cfdd431c0] mb B  I16..4:  0.4%  0.5%  0.3%  B16..8:  9.8%  1.0%  0.2%  direct: 3.8%  skip:84.0%  L0:47.0% L1:51.5% BI: 1.5%\n",
      "[libx264 @ 0x556cfdd431c0] 8x8 transform intra:52.0% inter:81.1%\n",
      "[libx264 @ 0x556cfdd431c0] coded y,uvDC,uvAC intra: 29.4% 79.3% 48.6% inter: 2.5% 8.8% 0.4%\n",
      "[libx264 @ 0x556cfdd431c0] i16 v,h,dc,p: 39% 31% 14% 17%\n",
      "[libx264 @ 0x556cfdd431c0] i8 v,h,dc,ddl,ddr,vr,hd,vl,hu: 29% 23% 32%  3%  3%  3%  3%  3%  2%\n",
      "[libx264 @ 0x556cfdd431c0] i4 v,h,dc,ddl,ddr,vr,hd,vl,hu: 28% 22% 28%  4%  4%  4%  4%  4%  3%\n",
      "[libx264 @ 0x556cfdd431c0] i8c dc,h,v,p: 49% 23% 21%  6%\n",
      "[libx264 @ 0x556cfdd431c0] Weighted P-Frames: Y:1.3% UV:1.3%\n",
      "[libx264 @ 0x556cfdd431c0] ref P L0: 65.3% 34.7%\n",
      "[libx264 @ 0x556cfdd431c0] ref B L0: 76.3% 23.7%\n",
      "[libx264 @ 0x556cfdd431c0] ref B L1: 95.1%  4.9%\n",
      "[libx264 @ 0x556cfdd431c0] kb/s:798.39\n"
     ]
    }
   ],
   "source": [
    "videos = [\n",
    "    'videos/generate_image_174700028.mp4',\n",
    "    'videos/generate_image_174700028.mp4',\n",
    "    'videos/generate_image_174700028.mp4',\n",
    "    'videos/generate_image_174700028.mp4',\n",
    "    'videos/generate_image_174700028.mp4',            \n",
    "    ]\n",
    "\n",
    "\n",
    "overlay_videos = [\n",
    "        'videos/vecteezy_2-color-liquid-black-and-red-transition-green-screen_49115368.mov',\n",
    "        'videos/vecteezy_red-liquid-transition-green-screen_49115367.mov',\n",
    "        'videos/vecteezy_transition-ink-gradient-color-green-screen-free_48868911.mov',\n",
    "        'videos/vecteezy_transitions-love-green-screen_48868982.mov',\n",
    "        \n",
    "    ]\n",
    "\n",
    "short_overlay_videos = [\n",
    "        'videos/1.mov',\n",
    "        'videos/2.mov',\n",
    "        'videos/3.mov',\n",
    "        'videos/4.mov',  \n",
    "        'videos/5.mov',  \n",
    "        'videos/6.mov',  \n",
    "        'videos/7.mov',\n",
    "        'videos/8.mov',  \n",
    "        'videos/9.mov',  \n",
    "    ]\n",
    "\n",
    "output_video_avi = 'output.mp4'\n",
    "\n",
    "effects_next =[ 2 for i in range(len(videos))]\n",
    "\n",
    "concatenate_videos(videos, output_video_avi, overlay_videos, short_overlay_videos, effects_next)"
   ]
  },
  {
   "cell_type": "code",
   "execution_count": 124,
   "id": "1963e0ce-7228-4e16-9d4c-0642b87a97f8",
   "metadata": {},
   "outputs": [
    {
     "name": "stdout",
     "output_type": "stream",
     "text": [
      "ffmpeg version 4.4.2-0ubuntu0.22.04.1 Copyright (c) 2000-2021 the FFmpeg developers\n",
      "  built with gcc 11 (Ubuntu 11.2.0-19ubuntu1)\n",
      "  configuration: --prefix=/usr --extra-version=0ubuntu0.22.04.1 --toolchain=hardened --libdir=/usr/lib/x86_64-linux-gnu --incdir=/usr/include/x86_64-linux-gnu --arch=amd64 --enable-gpl --disable-stripping --enable-gnutls --enable-ladspa --enable-libaom --enable-libass --enable-libbluray --enable-libbs2b --enable-libcaca --enable-libcdio --enable-libcodec2 --enable-libdav1d --enable-libflite --enable-libfontconfig --enable-libfreetype --enable-libfribidi --enable-libgme --enable-libgsm --enable-libjack --enable-libmp3lame --enable-libmysofa --enable-libopenjpeg --enable-libopenmpt --enable-libopus --enable-libpulse --enable-librabbitmq --enable-librubberband --enable-libshine --enable-libsnappy --enable-libsoxr --enable-libspeex --enable-libsrt --enable-libssh --enable-libtheora --enable-libtwolame --enable-libvidstab --enable-libvorbis --enable-libvpx --enable-libwebp --enable-libx265 --enable-libxml2 --enable-libxvid --enable-libzimg --enable-libzmq --enable-libzvbi --enable-lv2 --enable-omx --enable-openal --enable-opencl --enable-opengl --enable-sdl2 --enable-pocketsphinx --enable-librsvg --enable-libmfx --enable-libdc1394 --enable-libdrm --enable-libiec61883 --enable-chromaprint --enable-frei0r --enable-libx264 --enable-shared\n",
      "  libavutil      56. 70.100 / 56. 70.100\n",
      "  libavcodec     58.134.100 / 58.134.100\n",
      "  libavformat    58. 76.100 / 58. 76.100\n",
      "  libavdevice    58. 13.100 / 58. 13.100\n",
      "  libavfilter     7.110.100 /  7.110.100\n",
      "  libswscale      5.  9.100 /  5.  9.100\n",
      "  libswresample   3.  9.100 /  3.  9.100\n",
      "  libpostproc    55.  9.100 / 55.  9.100\n",
      "Input #0, mov,mp4,m4a,3gp,3g2,mj2, from 'videos/9.mp4':\n",
      "  Metadata:\n",
      "    major_brand     : isom\n",
      "    minor_version   : 512\n",
      "    compatible_brands: isomiso2avc1mp41\n",
      "    encoder         : Lavf61.7.100\n",
      "  Duration: 00:00:01.57, start: 0.000000, bitrate: 3975 kb/s\n",
      "  Stream #0:0(und): Audio: aac (LC) (mp4a / 0x6134706D), 44100 Hz, stereo, fltp, 2 kb/s (default)\n",
      "    Metadata:\n",
      "      handler_name    : SoundHandler\n",
      "      vendor_id       : [0][0][0][0]\n",
      "  Stream #0:1(und): Video: h264 (High) (avc1 / 0x31637661), yuv420p(tv, bt709), 1280x720, 3964 kb/s, 30.64 fps, 30 tbr, 1000k tbn, 2000k tbc (default)\n",
      "    Metadata:\n",
      "      handler_name    : VideoHandler\n",
      "      vendor_id       : [0][0][0][0]\n",
      "      encoder         : Lavc61.19.100 libx264\n",
      "Stream mapping:\n",
      "  Stream #0:1 (h264) -> chromakey\n",
      "  chromakey -> Stream #0:0 (prores_ks)\n",
      "Press [q] to stop, [?] for help\n",
      "Output #0, mov, to 'videos/9.mov':\n",
      "  Metadata:\n",
      "    major_brand     : isom\n",
      "    minor_version   : 512\n",
      "    compatible_brands: isomiso2avc1mp41\n",
      "    encoder         : Lavf58.76.100\n",
      "  Stream #0:0: Video: prores (ap4h / 0x68347061), yuva444p10le(tv, bt709, progressive), 1280x720, q=2-31, 200 kb/s, 30 fps, 15360 tbn (default)\n",
      "    Metadata:\n",
      "      encoder         : Lavc58.134.100 prores_ks\n",
      "frame=   48 fps= 19 q=-0.0 Lsize=   17025kB time=00:00:01.56 bitrate=89018.9kbits/s speed=0.614x     \n",
      "video:17024kB audio:0kB subtitle:0kB other streams:0kB global headers:0kB muxing overhead: 0.006241%\n"
     ]
    }
   ],
   "source": [
    "!ffmpeg -i videos/9.mp4 -filter_complex \"chromakey=0x00FF00:0.3:0.01[tr2]\" -map [tr2] -c:v prores_ks -profile:v 4444 -y videos/9.mov"
   ]
  },
  {
   "cell_type": "code",
   "execution_count": null,
   "id": "932d3e19-afdb-4335-b3c8-fa47a5791d21",
   "metadata": {
    "scrolled": true
   },
   "outputs": [],
   "source": [
    "from tools import *\n",
    "\n",
    "add_audio_to_video('video/temp_video.mp4', 'static/no_vocal.mp3', 'otput.mp4')\n",
    "\n"
   ]
  }
 ],
 "metadata": {
  "kernelspec": {
   "display_name": "Python 3 (ipykernel)",
   "language": "python",
   "name": "python3"
  },
  "language_info": {
   "codemirror_mode": {
    "name": "ipython",
    "version": 3
   },
   "file_extension": ".py",
   "mimetype": "text/x-python",
   "name": "python",
   "nbconvert_exporter": "python",
   "pygments_lexer": "ipython3",
   "version": "3.11.10"
  }
 },
 "nbformat": 4,
 "nbformat_minor": 5
}
